<?xml version="1.0" encoding="utf-8"?>
<!-- Generator: Adobe Illustrator 18.0.0, SVG Export Plug-In . SVG Version: 6.00 Build 0)  -->
<!DOCTYPE svg PUBLIC "-//W3C//DTD SVG 1.1//EN" "http://www.w3.org/Graphics/SVG/1.1/DTD/svg11.dtd">
<svg version="1.1" id="Capa_1" xmlns="http://www.w3.org/2000/svg" xmlns:xlink="http://www.w3.org/1999/xlink" x="0px" y="0px"
	 viewBox="0 0 498.5 498.5" enable-background="new 0 0 498.5 498.5" xml:space="preserve">
<g>
	<g>
		<path fill="#FFFFFF" d="M492.2,111.4l-102.4-65c-8.3-5.3-15.1-1.5-15.1,8.3v23.3c-85.2,0.5-154.2,69.7-154.2,155.1
			c0,14.9,2.1,29.4,6.1,43.1c18.5-64.4,77.8-111.6,148.1-112v23.3c0,9.9,6.8,13.6,15.1,8.3l102.4-65
			C500.6,125.3,500.5,116.7,492.2,111.4z"/>
		<path fill="#FFFFFF" d="M376.5,379.2c0,11.9-9.7,21.5-21.5,21.5H75.3c-11.9,0-21.5-9.7-21.5-21.5V207c0-11.9,9.7-21.5,21.5-21.5
			h136.4c5.9-19.8,14.4-38,25.5-53.8H21.5C9.6,131.8,0,141.3,0,153.3V433c0,11.9,9.7,21.5,21.5,21.5h387.3
			c11.9,0,21.5-9.6,21.5-21.5V189.7l-53.8,34.2L376.5,379.2L376.5,379.2z"/>
	</g>
</g>
</svg>
